#!OML:ASF Y:\EmotionMaleHayes\Project 1\Capture day 1\Session 1\Male1.ASF
:FULLY-SPECIFIED
:DEGREES
17
root -20.1401 16.0717 0.631954 124.049 76.0131 119.605
lowerback 10.3171 -6.89173 -17.4194
upperback 3.23053 -10.6557 -0.975825
thorax 0.750257 -5.46463 9.27866
lowerneck -27.5216 6.98425 2.49346
upperneck 23.04 9.3975 -1.92211
head 12.3713 4.1319 0.594538
rclavicle -7.59357e-014 -4.59193e-014
rhumerus -93.6033 26.9378 -80.8901
rradius 76.3016
rwrist -15.7309
rhand -22.8033 -19.8958
rfingers 7.12502
rthumb 3.63307 -49.8446
lclavicle -7.59357e-014 -4.59193e-014
lhumerus -17.3111 -36.0115 82.2734
lradius 97.7657
lwrist 7.87235
lhand -41.8161 -45.8537
lfingers 7.12502
lthumb -14.718 -16.3962
rfemur -44.649 -6.88256 5.21362
rtibia 25.35
rfoot -11.1983 -5.74973
rtoes 6.34904
lfemur 33.5647 -6.05421 -32.5067
ltibia 36.5642
lfoot 1.90192 6.94079
ltoes -21.1956
18
root -19.4641 16.0407 0.607669 122.929 75.8718 118.345
lowerback 10.5695 -6.66514 -17.3483
upperback 2.4177 -10.5235 -0.877497
thorax -0.318912 -5.26957 9.47925
lowerneck -26.9609 6.77766 2.40684
upperneck 23.4541 9.26275 -2.13469
head 12.4374 4.04115 0.495493
rclavicle -4.54471e-014 -5.02925e-014
rhumerus -93.4862 26.4001 -80.8428
rradius 76.5811
rwrist -15.3117
rhand -22.9101 -20.9167
rfingers 7.12502
rthumb 3.52991 -50.8672
lclavicle -4.54471e-014 -5.02925e-014
lhumerus -21.2778 -36.3903 85.239
lradius 97.6776
lwrist 7.28547
lhand -41.8208 -45.8449
lfingers 7.12502
lthumb -14.7225 -16.3877
rfemur -44.3516 -7.59102 5.35418
rtibia 24.095
rfoot -12.2244 -6.16491
rtoes 13.7961
lfemur 32.7913 -5.94279 -32.8449
ltibia 41.5809
lfoot 0.929477 7.21019
ltoes -14.1103
19
root -18.7912 15.9921 0.584933 121.358 75.4098 116.631
lowerback 9.67178 -6.43896 -17.5387
upperback 2.42076 -10.067 -1.07637
thorax 0.0461019 -5.07214 9.22966
lowerneck -26.8202 6.39551 2.09375
upperneck 23.2757 8.82103 -2.05799
head 12.3106 3.83594 0.482973
rclavicle -5.38085e-014 2.07233e-014
rhumerus -91.95 25.1629 -80.6822
rradius 76.6097
rwrist -15.008
rhand -23.167 -21.5541
rfingers 7.12502
rthumb 3.28182 -51.5086
lclavicle -5.38085e-014 2.07233e-014
lhumerus -23.7332 -36.879 87.1655
lradius 97.2036
lwrist 7.00562
lhand -41.9179 -44.4287
lfingers 7.12502
lthumb -14.8161 -14.9783
rfemur -44.4369 -8.8004 5.48883
rtibia 24.0031
rfoot -11.217 -6.43603
rtoes 8.00953
lfemur 31.6766 -5.69655 -33.3788
ltibia 46.9474
lfoot 0.100368 6.98581
ltoes -6.46422
20
root -18.1144 15.9274 0.563203 120.421 74.8703 115.697
lowerback 9.27292 -6.17768 -17.8452
upperback 2.21608 -9.69972 -1.10031
thorax -0.0143615 -4.87574 9.33012
lowerneck -26.7289 6.01933 1.41706
upperneck 23.4264 8.50625 -1.79848
head 12.2992 3.67333 0.629367
rclavicle 3.8881e-014 7.37988e-015
rhumerus -90.6563 24.323 -80.7186
rradius 76.7858
rwrist -15.3988
rhand -23.6654 -22.3184
rfingers 7.12502
rthumb 2.80046 -52.2798
lclavicle 3.8881e-014 7.37988e-015
lhumerus -26.451 -36.9068 89.635
lradius 96.1294
lwrist 6.90537
lhand -41.6362 -42.9494
lfingers 7.12502
lthumb -14.5446 -13.4792
rfemur -44.0476 -9.07288 4.64684
rtibia 24.9992
rfoot -12.0422 -6.7778
rtoes 12.505
lfemur 30.5519 -5.40727 -33.6971
ltibia 52.0771
lfoot 0.49072 6.40252
ltoes -6.09413
21
root -17.4432 15.851 0.53973 119.879 74.3566 115.4
lowerback 8.714 -5.96658 -18.034
upperback 2.34961 -9.30183 -1.21981
thorax 0.339418 -4.71478 9.21389
lowerneck -26.8893 5.75179 1.49681
upperneck 23.6125 8.23483 -2.21425
head 12.4267 3.49623 0.41955
rclavicle 3.70485e-014 -8.74653e-015
rhumerus -88.7451 23.4531 -80.9334
rradius 76.9348
rwrist -16.0709
rhand -24.2531 -23.0518
rfingers 7.12502
rthumb 2.23288 -53.0199
lclavicle 3.70485e-014 -8.74653e-015
lhumerus -28.5927 -36.7669 91.5153
lradius 94.856
lwrist 7.36195
lhand -41.4228 -41.1368
lfingers 7.12502
lthumb -14.339 -11.652
rfemur -43.1997 -9.2132 3.7745
rtibia 26.0067
rfoot -12.1092 -7.19101
rtoes 16.0162
lfemur 29.6126 -5.14205 -33.877
ltibia 57.0199
lfoot 0.100003 5.61092
ltoes -6.21381
22
root -16.7843 15.7624 0.517906 118.492 73.9816 114.433
lowerback 8.611 -5.55544 -18.1708
upperback 2.37007 -8.74295 -1.40551
thorax 0.248909 -4.42532 9.08108
lowerneck -27.1897 5.45258 2.14197
upperneck 24.0408 7.86514 -3.16129
head 12.7291 3.24627 -0.0964743
rclavicle -1.70955e-014 -5.26779e-014
rhumerus -86.8044 22.4509 -81.1722
rradius 77.0655
rwrist -16.3079
rhand -24.3412 -23.7257
rfingers 7.12502
rthumb 2.1478 -53.6946
lclavicle -1.70955e-014 -5.26779e-014
lhumerus -31.1244 -36.5285 93.5383
lradius 93.4768
lwrist 7.96899
lhand -41.1127 -40.3929
lfingers 7.12502
lthumb -14.0402 -10.8872
rfemur -42.2298 -9.76756 3.43858
rtibia 27.2376
rfoot -8.29129 -7.21197
rtoes 17.0691
lfemur 28.6087 -4.61389 -34.026
ltibia 62.036
lfoot -0.300929 4.69907
ltoes -3.03859
23
root -16.1308 15.6594 0.494832 116.742 73.716 113.166
lowerback 8.82115 -5.05564 -18.2582
upperback 2.2253 -8.15478 -1.57132
thorax -0.210025 -4.08012 8.99475
lowerneck -27.2044 5.14015 2.35557
upperneck 24.3634 7.48259 -3.54508
head 12.8808 3.04036 -0.346543
rclavicle 5.14852e-014 3.10104e-014
rhumerus -84.9856 21.5112 -81.509
rradius 77.2437
rwrist -16.3537
rhand -24.0398 -24.4962
rfingers 7.12502
rthumb 2.43894 -54.462
lclavicle 5.14852e-014 3.10104e-014
lhumerus -33.9964 -35.9187 95.734
lradius 91.8289
lwrist 8.77925
lhand -40.8537 -40.3038
lfingers 7.12502
lthumb -13.7907 -10.7809
rfemur -41.4501 -11.2307 3.72386
rtibia 29.0405
rfoot -5.47043 -8.39453
rtoes 37.7902
lfemur 27.4966 -3.83958 -34.0493
ltibia 66.9189
lfoot -0.234248 3.67646
ltoes -2.41456
24
root -15.5293 15.5428 0.504242 114.867 74.3399 111.916
lowerback 9.84381 -4.32449 -17.9994
upperback 1.90708 -7.43627 -1.37933
thorax -1.3459 -3.61004 9.20597
lowerneck -26.7589 4.81938 1.9955
upperneck 24.3833 7.14494 -3.38041
head 12.7694 2.89316 -0.297762
rclavicle -3.11098e-014 -2.64384e-014
rhumerus -83.1805 20.7364 -82.0292
rradius 77.4459
rwrist -16.7763
rhand -24.1916 -24.8769
rfingers 7.12502
rthumb 2.29231 -54.8443
lclavicle -3.11098e-014 -2.64384e-014
lhumerus -36.9123 -34.8732 97.9565
lradius 89.8832
lwrist 9.32496
lhand -40.8607 -39.7366
lfingers 7.12502
lthumb -13.7974 -10.2142
rfemur -41.6313 -12.2359 5.66673
rtibia 33.2318
rfoot -1.95383 -9.21497
rtoes 33.968
lfemur 26.0306 -2.56926 -32.6119
ltibia 71.5996
lfoot -0.067432 1.89853
ltoes -1.33441
25
root -14.9382 15.4325 0.504935 113.273 75.5207 111.306
lowerback 11.042 -3.54287 -16.9673
upperback 1.8769 -6.55167 -1.11006
thorax -2.38872 -3.08872 9.03715
lowerneck -26.2306 4.43385 1.47118
upperneck 24.0098 6.74812 -3.21364
head 12.4794 2.71101 -0.236369
rclavicle 3.20043e-014 4.37326e-014
rhumerus -80.8698 19.8899 -82.5741
rradius 77.5589
rwrist -16.9963
rhand -25.3243 -24.8433
rfingers 7.12502
rthumb 1.19835 -54.8197
lclavicle 3.20043e-014 4.37326e-014
lhumerus -39.3129 -33.5252 99.8074
lradius 87.7065
lwrist 9.26867
lhand -41.0352 -39.0599
lfingers 7.12502
lthumb -13.9655 -9.54897
rfemur -43.3685 -11.7959 7.69339
rtibia 41.1633
rfoot -4.21794 -5.93739
rtoes 25.195
lfemur 24.8049 -1.0212 -30.4866
ltibia 75.8479
lfoot 1.10121 -0.881508
ltoes 3.52055
26
root -14.3783 15.3359 0.499746 109.835 78.1437 109.037
lowerback 12.3969 -2.49299 -14.5535
upperback 2.06357 -5.10228 -0.678374
thorax -3.51738 -2.31795 8.17533
lowerneck -25.9564 4.00596 1.31685
upperneck 23.5582 6.2018 -3.29663
head 12.2329 2.45618 -0.350764
rclavicle 7.46933e-014 2.10712e-014
rhumerus -77.8431 18.7015 -83.0045
rradius 77.6474
rwrist -15.8481
rhand -25.6376 -26.6588
rfingers 7.12502
rthumb 0.895727 -56.6367
lclavicle 7.46933e-014 2.10712e-014
lhumerus -41.1713 -31.9328 101.11
lradius 85.27
lwrist 8.93805
lhand -40.8454 -38.892
lfingers 7.12502
lthumb -13.7826 -9.36857
rfemur -44.772 -8.28443 10.2439
rtibia 48.1726
rfoot -7.98164 -7.8206
rtoes 20.3303
lfemur 23.7269 1.10318 -26.9848
ltibia 79.872
lfoot 2.24529 -4.82576
ltoes 9.57015
